<svg width="20" height="16" viewBox="0 0 20 16" fill="none" xmlns="http://www.w3.org/2000/svg">
<path d="M16.9347 1.7056C15.6944 1.13651 14.3644 0.717222 12.9738 0.477082C12.9485 0.472447 12.9232 0.484029 12.9101 0.507194C12.7391 0.811422 12.5496 1.20831 12.4169 1.52027C10.9212 1.29635 9.4332 1.29635 7.96817 1.52027C7.83546 1.20138 7.63912 0.811422 7.4673 0.507194C7.45425 0.484802 7.42895 0.47322 7.40363 0.477082C6.01378 0.716455 4.68377 1.13574 3.44272 1.7056C3.43198 1.71023 3.42277 1.71796 3.41666 1.72799C0.893906 5.49693 0.202817 9.17323 0.541842 12.804C0.543376 12.8217 0.553347 12.8387 0.567154 12.8495C2.2316 14.0718 3.84389 14.8139 5.42625 15.3058C5.45157 15.3135 5.4784 15.3042 5.49452 15.2834C5.86883 14.7722 6.20249 14.2332 6.48857 13.6665C6.50545 13.6333 6.48934 13.5939 6.45483 13.5807C5.92559 13.38 5.42164 13.1352 4.93688 12.8572C4.89854 12.8348 4.89547 12.78 4.93074 12.7537C5.03275 12.6773 5.13479 12.5978 5.2322 12.5175C5.24982 12.5028 5.27438 12.4997 5.2951 12.509C8.47976 13.963 11.9275 13.963 15.0746 12.509C15.0954 12.4989 15.1199 12.502 15.1383 12.5167C15.2357 12.597 15.3377 12.6773 15.4405 12.7537C15.4758 12.78 15.4735 12.8348 15.4352 12.8572C14.9504 13.1406 14.4464 13.38 13.9164 13.58C13.8819 13.5931 13.8666 13.6333 13.8835 13.6665C14.1757 14.2324 14.5093 14.7714 14.8767 15.2826C14.8921 15.3042 14.9197 15.3135 14.945 15.3058C16.535 14.8139 18.1473 14.0718 19.8118 12.8495C19.8264 12.8387 19.8356 12.8225 19.8371 12.8047C20.2428 8.60721 19.1575 4.96106 16.96 1.72876C16.9546 1.71796 16.9454 1.71023 16.9347 1.7056ZM6.96415 10.5932C6.00534 10.5932 5.21532 9.71297 5.21532 8.63193C5.21532 7.55089 5.99002 6.67064 6.96415 6.67064C7.94592 6.67064 8.7283 7.55862 8.71295 8.63193C8.71295 9.71297 7.93824 10.5932 6.96415 10.5932ZM13.4301 10.5932C12.4714 10.5932 11.6813 9.71297 11.6813 8.63193C11.6813 7.55089 12.456 6.67064 13.4301 6.67064C14.4119 6.67064 15.1943 7.55862 15.179 8.63193C15.179 9.71297 14.4119 10.5932 13.4301 10.5932Z" fill="white"/>
</svg>
