<svg width="33" height="32" viewBox="0 0 33 32" fill="none" xmlns="http://www.w3.org/2000/svg">
<path fill-rule="evenodd" clip-rule="evenodd" d="M16.513 0.5C7.65809 0.5 0.499756 7.7111 0.499756 16.6322C0.499756 23.7633 5.08635 29.7997 11.4492 31.9361C12.2447 32.0968 12.5361 31.589 12.5361 31.1619C12.5361 30.7879 12.5098 29.506 12.5098 28.1703C8.05535 29.132 7.12774 26.2472 7.12774 26.2472C6.41188 24.3776 5.35119 23.8971 5.35119 23.8971C3.89324 22.9088 5.45739 22.9088 5.45739 22.9088C7.07464 23.0157 7.92326 24.5648 7.92326 24.5648C9.35466 27.0218 11.6612 26.3275 12.5892 25.9001C12.7216 24.8584 13.1461 24.1373 13.5968 23.7368C10.044 23.3628 6.30601 21.974 6.30601 15.7774C6.30601 14.0146 6.94189 12.5724 7.94948 11.4507C7.79051 11.0502 7.23362 9.39391 8.10878 7.17715C8.10878 7.17715 9.46086 6.74973 12.5095 8.83309C13.8148 8.47996 15.1608 8.30032 16.513 8.29881C17.8651 8.29881 19.2434 8.48597 20.5161 8.83309C23.5651 6.74973 24.9172 7.17715 24.9172 7.17715C25.7924 9.39391 25.2352 11.0502 25.0762 11.4507C26.1103 12.5724 26.72 14.0146 26.72 15.7774C26.72 21.974 22.982 23.3359 19.4027 23.7368C19.9861 24.2442 20.4896 25.2056 20.4896 26.7281C20.4896 28.8914 20.4634 30.6277 20.4634 31.1616C20.4634 31.589 20.7551 32.0968 21.5503 31.9365C27.9131 29.7994 32.4997 23.7633 32.4997 16.6322C32.5259 7.7111 25.3414 0.5 16.513 0.5Z" fill="white"/>
</svg>
