<svg width="20" height="20" viewBox="0 0 20 20" fill="none" xmlns="http://www.w3.org/2000/svg">
<g clip-path="url(#clip0_37_3931)">
<path d="M18.4804 0.336182H1.89808C1.10374 0.336182 0.461426 0.963293 0.461426 1.73863V18.3894C0.461426 19.1647 1.10374 19.7956 1.89808 19.7956H18.4804C19.2748 19.7956 19.9209 19.1647 19.9209 18.3932V1.73863C19.9209 0.963293 19.2748 0.336182 18.4804 0.336182ZM6.23465 16.9185H3.34614V7.62968H6.23465V16.9185ZM4.7904 6.36405C3.86303 6.36405 3.1143 5.61532 3.1143 4.69176C3.1143 3.76819 3.86303 3.01946 4.7904 3.01946C5.71396 3.01946 6.46269 3.76819 6.46269 4.69176C6.46269 5.61152 5.71396 6.36405 4.7904 6.36405ZM17.0438 16.9185H14.1591V12.4033C14.1591 11.3277 14.1401 9.94049 12.6578 9.94049C11.1565 9.94049 10.9285 11.1149 10.9285 12.3273V16.9185H8.04757V7.62968H10.8145V8.8991H10.8525C11.2363 8.16937 12.1789 7.39784 13.5814 7.39784C16.5041 7.39784 17.0438 9.32098 17.0438 11.8218V16.9185Z" fill="white"/>
</g>
<defs>
<clipPath id="clip0_37_3931">
<rect width="19.4595" height="19.4595" fill="white" transform="translate(0.461426 0.336182)"/>
</clipPath>
</defs>
</svg>
